<svg width="708" height="928" viewBox="0 0 708 928" fill="none" xmlns="http://www.w3.org/2000/svg">
<path d="M0 950.622L71.1971 895.388C142.394 840.155 284.786 730.012 356.377 618.4C427.961 507.926 428.741 396.306 358.705 285.329C288.681 172.727 147.849 59.6309 172.298 -50.6858C195.869 -162.146 386.94 -271.786 504.999 -383.073C623.051 -493.385 672.51 -604.502 601.822 -717.109C532.451 -828.243 342.938 -941.518 226.435 -1052.82C109.942 -1165.58 62.0352 -1276.57 39.6414 -1333.59L16.3512 -1389L724.428 -1384.05L724.038 -1328.32C723.649 -1272.59 722.872 -1161.46 722.089 -1049.36C721.313 -938.386 720.533 -826.766 719.761 -716.284C718.977 -604.177 718.194 -492.07 717.422 -381.588C716.642 -269.969 715.866 -158.999 715.083 -46.8924C714.306 64.2396 713.527 175.697 712.744 287.804C711.97 398.448 711.188 510.393 710.416 620.875C709.633 732.819 708.86 843.464 708.463 900.33L708.077 955.571L0 950.622Z" fill="#45556C"/>
</svg>
