<svg width="945" height="928" viewBox="0 0 945 928" fill="none" xmlns="http://www.w3.org/2000/svg">
<g clip-path="url(#clip0_17_2)">
<path d="M1.64169 940.763L96.2384 892.19C190.835 843.618 380.029 746.755 474.586 649.12C569.144 552.475 569.066 455.341 474.352 359.273C379.638 261.791 190.287 164.385 221.854 68.2155C252.236 -28.9432 506.492 -125.717 663.154 -223.402C819.817 -320.238 884.801 -417.283 789.199 -514.765C695.373 -610.975 440.96 -708.187 284.142 -804.205C127.323 -901.495 62.1834 -997.729 31.6826 -1047.19L-4.9567e-06 -1095.24L946.358 -1096L946.397 -1047.5C946.436 -999.007 946.514 -902.297 946.593 -804.739C946.671 -708.17 946.749 -611.036 946.827 -514.892C946.906 -417.333 946.984 -319.775 947.062 -223.631C947.14 -126.496 947.218 -29.9278 947.297 67.6305C947.375 164.341 947.453 261.333 947.531 358.892C947.609 455.177 947.688 552.594 947.765 648.739C947.844 746.156 947.921 842.442 947.961 891.928L948 940L1.64169 940.763Z" fill="#45556C"/>
</g>
<defs>
<clipPath id="clip0_17_2">
<rect width="2036" height="946.359" fill="white" transform="translate(1.64169 940.763) rotate(-90.0462)"/>
</clipPath>
</defs>
</svg>
